<svg id="BIOTEC" xmlns="http://www.w3.org/2000/svg" viewBox="0 0 1000 158">
  <defs>
    <style>
      .cls-1 {
        fill: #0d402f;
      }
    </style>
  </defs>
  <path class="cls-1" d="M0,2.38H135.9464q14.8842,0,24.9561,6.7865a41.95,41.95,0,0,1,14.8858,16.9659,47.5028,47.5028,0,0,1,4.8166,20.4688q0,23.8632-19.9215,31.3044v2.1892q10.5085,3.5049,17.6233,14.01a40.5246,40.5246,0,0,1,7.1147,23.2052q0,18.1728-11.6031,28.24-11.6053,10.0725-30.21,10.07H0ZM146.1257,62.1431A17.2293,17.2293,0,0,0,151.9268,48.79a17.6357,17.6357,0,0,0-5.692-13.5732q-5.6952-5.2542-14.6667-5.2537H28.4589V67.3979H131.5681A20.8734,20.8734,0,0,0,146.1257,62.1431Zm3.94,60.4208a17.9088,17.9088,0,0,0,5.8021-13.5721,17.05,17.05,0,0,0-5.692-13.245q-5.6952-5.14-14.6677-5.1447H28.4589v37.4346H135.5082A20.3793,20.3793,0,0,0,150.0658,122.5639Z"/>
  <path class="cls-1" d="M218.2565,2.38h28.459V155.62h-28.459Z"/>
  <path class="cls-1" d="M559.3278,28.65H510.51V2.38H636.6054V28.65H587.7867V155.62H559.3278Z"/>
  <path class="cls-1" d="M694.6157,66.5214H817.4262V91.4786H694.6157V129.35H823.9936v26.27H666.1568V2.38H824.4319V28.65H694.6157Z"/>
  <path class="cls-1" d="M955.0134,36.3363q-12.15-7.9647-29.0062-7.9663a49.0889,49.0889,0,0,0-43.565,25.0966A50.8211,50.8211,0,0,0,875.8748,79a50.804,50.804,0,0,0,6.5674,25.5334,49.0889,49.0889,0,0,0,43.565,25.0966q17.0727,0,29.6625-8.7292,12.5865-8.7271,18.4988-25.0966L999.78,107.5885q-10.29,22.9141-29.6626,36.6623T926.0072,158a76.7642,76.7642,0,0,1-40.0632-10.6942A77.5743,77.5743,0,0,1,857.7053,118.5,78.568,78.568,0,0,1,847.4158,79a78.5881,78.5881,0,0,1,10.2895-39.5A77.6215,77.6215,0,0,1,885.944,10.6942,76.8046,76.8046,0,0,1,926.0072,0q25.3911,0,44.9866,14.185A84.4821,84.4821,0,0,1,1000,51.2843L972.8537,60.45Q967.1585,44.3036,955.0134,36.3363Z"/>
  <path class="cls-1" d="M456.6512,11.9577c-18.289-9.1446-30.4746-9.578-65.3048-9.578H381.2012c-34.83,0-47.0159.4334-65.3049,9.578-21.7636,10.8855-37.4382,36.5714-37.4382,67.0462,0,30.4672,15.6746,56.1529,37.4382,67.0383,18.289,9.1449,30.4746,9.5781,65.3049,9.5781h10.1452c34.83,0,47.0158-.4332,65.3048-9.5781,21.7638-10.8854,37.4382-36.5713,37.4382-67.0459C494.0894,48.5291,478.415,22.8432,456.6512,11.9577ZM442.0967,121.14c-11.4957,5.748-19.155,6.02-41.0478,6.02h-29.55c-21.8928,0-29.5522-.2724-41.0478-6.02-13.68-6.8422-23.5321-22.987-23.5321-42.1375,0-19.1551,9.8524-35.3,23.5321-42.1421,11.4956-5.748,19.155-6.02,41.0478-6.02h29.55c21.8928,0,29.5521.2723,41.0478,6.02,13.68,6.842,23.532,22.987,23.532,42.1373C465.6287,98.1526,455.7764,114.2977,442.0967,121.14Z"/>
</svg>
